<?xml version="1.0" encoding="UTF-8"?>
<svg version="1.1" xmlns="http://www.w3.org/2000/svg" width="512" height="512">
<path d="M0 0 C1.1863685 -0.01104769 2.372737 -0.02209538 3.59505606 -0.03347784 C5.5520335 -0.02111669 5.5520335 -0.02111669 7.54854584 -0.00850582 C8.94746207 -0.01382947 10.34637259 -0.02089412 11.74527216 -0.02955288 C15.59376821 -0.04823136 19.44188082 -0.04185756 23.29039311 -0.03139985 C27.43907509 -0.02442255 31.58767711 -0.0403945 35.73633575 -0.05339718 C43.86527463 -0.07506676 51.99407369 -0.0749028 60.12303197 -0.06677163 C66.72808458 -0.06047833 73.33309633 -0.0616025 79.9381485 -0.06804371 C80.87729911 -0.06894536 81.81644972 -0.06984702 82.78405944 -0.070776 C84.69177339 -0.07262715 86.59948733 -0.07448971 88.50720125 -0.07636356 C106.40659308 -0.09295217 124.30590614 -0.08421363 142.20529324 -0.06737798 C158.59181695 -0.05267831 174.97815736 -0.0673113 191.36465746 -0.09614814 C208.17940797 -0.12551891 224.99407381 -0.13652132 241.80884886 -0.12696594 C243.70964526 -0.12594336 245.61044167 -0.12494875 247.5112381 -0.12398243 C248.44652868 -0.12350604 249.38181926 -0.12302965 250.34545198 -0.12253882 C256.94453929 -0.12037172 263.54354669 -0.13019444 270.14261627 -0.14475346 C278.18192517 -0.16224213 286.22100024 -0.1622094 294.2602998 -0.1394018 C298.36415641 -0.12822818 302.46760054 -0.12516705 306.57143974 -0.14370251 C310.32565574 -0.16044106 314.07909741 -0.1542478 317.83326262 -0.12948572 C319.84029456 -0.12224951 321.84736814 -0.13969 323.85433054 -0.15789706 C325.63388329 -0.139264 325.63388329 -0.139264 327.4493866 -0.12025452 C328.47550096 -0.11998483 329.50161532 -0.11971514 330.55882406 -0.11943728 C334.20994354 0.73736493 335.25177089 2.40210612 337.2246933 5.50615788 C337.72805786 8.18454075 337.72805786 8.18454075 337.73262787 11.12297916 C337.74954681 12.80107418 337.74954681 12.80107418 337.76680756 14.51307011 C337.75466217 16.33979504 337.75466217 16.33979504 337.74227142 18.2034235 C337.75278534 20.13830883 337.75278534 20.13830883 337.76351166 22.11228275 C337.7817205 25.64335496 337.77468797 29.1739588 337.76199532 32.70503902 C337.75185482 36.40360986 337.7612639 40.1021411 337.76753998 43.80071354 C337.77481336 50.01135793 337.76523693 56.22181193 337.74617767 62.43242741 C337.72440934 69.6086018 337.73146094 76.7843216 337.7534833 83.96048498 C337.77164624 90.12625753 337.7741913 96.29189338 337.76372862 102.45768404 C337.75749853 106.13829053 337.75664449 109.81868347 337.76987457 113.49927616 C337.78359492 117.60275456 337.76456899 121.70545159 337.74227142 125.80889225 C337.75036835 127.02670887 337.75846527 128.24452549 337.76680756 129.49924564 C337.68539895 137.57370752 337.68539895 137.57370752 335.61737823 141.75930119 C332.41026042 144.10076083 330.38359642 144.14021581 326.42415619 144.15313053 C325.74885361 144.16189213 325.07355103 144.17065372 324.37778473 144.17968082 C322.15031503 144.20164829 319.92483865 144.187133 317.69734955 144.17022038 C316.14562347 144.17358975 314.59389998 144.17844338 313.04218292 144.18471622 C309.79132185 144.19208418 306.5411482 144.18138709 303.29036713 144.15801334 C299.12925411 144.12954808 294.9697551 144.1459138 290.80870152 144.17587566 C287.60436668 144.19397181 284.40041241 144.18817987 281.1960659 144.1752367 C279.66230769 144.17190779 278.12851462 144.17597172 276.59479713 144.18763447 C274.44714722 144.20038036 272.30208291 144.18092024 270.15462494 144.15313053 C268.93425034 144.14915257 267.71387573 144.1451746 266.45652008 144.14107609 C263.2246933 143.50615788 263.2246933 143.50615788 258.2246933 138.50615788 C258.2246933 118.70615788 258.2246933 98.90615788 258.2246933 78.50615788 C195.5246933 78.50615788 132.8246933 78.50615788 68.2246933 78.50615788 C68.2246933 195.98615788 68.2246933 313.46615788 68.2246933 434.50615788 C130.9246933 434.50615788 193.6246933 434.50615788 258.2246933 434.50615788 C258.2246933 414.70615788 258.2246933 394.90615788 258.2246933 374.50615788 C262.2246933 369.50615788 262.2246933 369.50615788 265.37422943 368.87123966 C267.23476959 368.86527271 267.23476959 368.86527271 269.13289642 368.85918522 C270.16289009 368.84604282 270.16289009 368.84604282 271.21369171 368.83263493 C273.47842266 368.81066796 275.74119331 368.82518115 278.0059433 368.84209538 C279.58248519 368.83872639 281.15902455 368.83387308 282.73555756 368.82759953 C286.0376893 368.82023197 289.33914422 368.83092896 292.6411972 368.85430241 C296.87190114 368.88279131 301.10101929 368.86638654 305.33166504 368.83644009 C308.58657 368.81836324 311.8410996 368.82412664 315.09601593 368.83707905 C316.6557204 368.84041205 318.21545906 368.8363296 319.7751236 368.82468128 C321.95649576 368.81196467 324.13530851 368.83135403 326.31649017 368.85918522 C327.55685028 368.86316319 328.79721039 368.86714115 330.07515717 368.87123966 C333.2246933 369.50615788 333.2246933 369.50615788 335.62410736 371.25301456 C338.1703576 376.42819244 337.78010822 381.51258546 337.74227142 387.2034235 C337.75278534 389.13830883 337.75278534 389.13830883 337.76351166 391.11228275 C337.7817205 394.64335496 337.77468797 398.1739588 337.76199532 401.70503902 C337.75185482 405.40360986 337.7612639 409.1021411 337.76753998 412.80071354 C337.77481336 419.01135793 337.76523693 425.22181193 337.74617767 431.43242741 C337.72440934 438.6086018 337.73146094 445.7843216 337.7534833 452.96048498 C337.77164624 459.12625753 337.7741913 465.29189338 337.76372862 471.45768404 C337.75749853 475.13829053 337.75664449 478.81868347 337.76987457 482.49927616 C337.78359492 486.60275456 337.76456899 490.70545159 337.74227142 494.80889225 C337.75036835 496.02670887 337.75846527 497.24452549 337.76680756 498.49924564 C337.75552826 499.61797565 337.74424896 500.73670567 337.73262787 501.88933659 C337.73036572 503.3438636 337.73036572 503.3438636 337.72805786 504.827775 C337.06129341 508.37560218 335.74379107 509.94136541 333.2246933 512.50615788 C330.55882406 513.13175303 330.55882406 513.13175303 327.4493866 513.13257027 C326.2630181 513.1449923 325.0766496 513.15741434 323.85433054 513.17021281 C322.54967891 513.15837708 321.24502728 513.14654135 319.90084076 513.13434696 C318.50192272 513.13939066 317.10301114 513.14661813 315.70411444 513.15584511 C311.85552451 513.17482005 308.00756771 513.16250469 304.15899348 513.14512217 C300.01031139 513.13177888 295.86172382 513.14717429 291.71305084 513.15894413 C283.58406965 513.17734789 275.45532841 513.16879023 267.32635462 513.15085591 C260.72129851 513.1368448 254.11630765 513.13293389 247.5112381 513.13629818 C246.57208749 513.13677562 245.63293688 513.13725306 244.66532716 513.13774497 C242.75761321 513.13877128 240.84989927 513.13982664 238.94218534 513.14091074 C222.06348756 513.14948334 205.18490582 513.13278466 188.30623627 513.1030817 C171.91849137 513.07424295 155.53091365 513.06716003 139.14315033 513.08257389 C121.30892034 513.09932522 103.47476978 513.10338118 85.64053774 513.08586353 C83.73974133 513.08401909 81.83894492 513.08218437 79.9381485 513.08035946 C79.00285792 513.07944737 78.06756734 513.07853528 77.10393462 513.07759555 C70.50486626 513.0719835 63.90583659 513.07530355 57.30677032 513.08190441 C49.26747648 513.08962644 41.22834738 513.08292593 33.18908679 513.05772937 C29.08529117 513.04520794 24.98175235 513.0391196 20.87794685 513.05027103 C17.12381395 513.06027987 13.37019419 513.0519264 9.61612397 513.02868985 C7.60910777 513.02105204 5.60204676 513.03311654 3.59505606 513.04579359 C2.40868756 513.0347459 1.22231906 513.02369822 0 513.01231575 C-1.02611436 513.01112427 -2.05222873 513.00993279 -3.10943747 513.0087052 C-5.7753067 512.50615788 -5.7753067 512.50615788 -8.10480309 510.99653381 C-10.46432056 507.47898049 -10.32676507 504.24679756 -10.27867126 500.15398502 C-10.28448503 499.2996277 -10.29029879 498.44527037 -10.29628873 497.56502342 C-10.31096642 494.68248923 -10.29696736 491.80079621 -10.28324127 488.91826725 C-10.28784711 486.83876196 -10.29419788 484.75925993 -10.30215025 482.67976475 C-10.31891017 476.95004344 -10.31056695 471.22058725 -10.29820538 465.49086475 C-10.28918441 459.31763977 -10.3031099 453.14446156 -10.31412506 446.97124577 C-10.33091557 435.57177103 -10.32941571 424.17240485 -10.31847919 412.77293277 C-10.30842605 402.24283659 -10.30578591 391.71277154 -10.31056976 381.18267155 C-10.3108753 380.48480823 -10.31118084 379.78694491 -10.31149564 379.06793422 C-10.31274095 376.23524298 -10.31401455 373.40255175 -10.3153347 370.56986055 C-10.32757702 343.98457847 -10.31646684 317.39935051 -10.29494711 290.81407678 C-10.27596398 267.18276232 -10.27766246 243.55153408 -10.29679108 219.92022038 C-10.31819896 193.38428009 -10.32670888 166.84838764 -10.31434202 140.31243992 C-10.31305911 137.48484136 -10.31180775 134.65724278 -10.31056976 131.8296442 C-10.31025345 131.13339205 -10.30993714 130.43713991 -10.30961125 129.71978921 C-10.30505695 119.19503376 -10.31039065 108.67031284 -10.32048798 98.14556217 C-10.33190907 86.18118478 -10.3287136 74.21690924 -10.307365 62.25253582 C-10.29682541 56.14374986 -10.29278222 50.03513922 -10.30596161 43.92635441 C-10.31783114 38.34037153 -10.31141309 32.75472745 -10.2900514 27.16877556 C-10.28556218 25.14192288 -10.28790313 23.11504191 -10.29755455 21.08820724 C-10.30962309 18.34450136 -10.29734131 15.60197383 -10.27867126 12.85833073 C-10.29271826 11.66292274 -10.29271826 11.66292274 -10.30704904 10.4433651 C-10.26024108 7.029286 -10.02696341 4.88132606 -8.10480309 2.01578194 C-5.19120353 0.12763134 -3.46305234 0.00402115 0 0 Z " fill="#FE3535" transform="translate(9.775306701660156,-0.5061578750610352)"/>
<path d="M0 0 C9.28848488 2.63404795 16.36188485 12.49989609 23.06030273 19.2121582 C24.17294047 20.3234384 25.28579028 21.4345063 26.39883423 22.54537964 C29.39859652 25.54061275 32.39522312 28.53896421 35.39112926 31.53805375 C38.53216403 34.68163177 41.67565086 37.82275631 44.81874084 40.96427917 C50.08839734 46.23212131 55.35595244 51.50205781 60.62231445 56.77319336 C66.71447034 62.87080742 72.81024318 68.96478786 78.90787405 75.05692655 C84.14891317 80.29343383 89.38800885 85.53187951 94.62547213 90.7719633 C97.75147151 93.89952288 100.87814556 97.02639992 104.00657463 100.15152931 C106.94157566 103.08365004 109.8741356 106.01819019 112.80479813 108.95464706 C113.88231207 110.03348702 114.96068485 111.11146995 116.03996086 112.18854713 C117.50848613 113.65435514 118.97392075 115.12318359 120.43858337 116.59284973 C121.26057189 117.41521527 122.08256041 118.23758081 122.92945766 119.08486652 C125.81067555 122.16044662 126.33381675 124.65004438 126.25337505 128.89214993 C125.69432694 131.5553954 124.79669389 132.65066395 122.95967102 134.64552307 C122.31957407 135.34201525 121.67947712 136.03850742 121.01998329 136.75610542 C116.6223095 141.34154983 112.15582634 145.8539369 107.65893555 150.34155273 C106.54765535 151.45419047 105.43658745 152.56704028 104.32571411 153.68008423 C101.330481 156.67984652 98.33212954 159.67647312 95.33304 162.67237926 C92.18946198 165.81341403 89.04833744 168.95690086 85.90681458 172.09999084 C80.63897244 177.36964734 75.36903594 182.63720244 70.09790039 187.90356445 C64.00028633 193.99572034 57.90630589 200.09149318 51.8141672 206.18912405 C46.57765992 211.43016317 41.33921424 216.66925885 36.09913045 221.90672213 C32.97157087 225.03272151 29.84469383 228.15939556 26.71956444 231.28782463 C23.78744371 234.22282566 20.85290356 237.1553856 17.91644669 240.08604813 C16.83760673 241.16356207 15.7596238 242.24193485 14.68254662 243.32121086 C13.21673861 244.78973613 11.74791016 246.25517075 10.27824402 247.71983337 C9.45587848 248.54182189 8.63351294 249.36381041 7.78622723 250.21070766 C4.84875618 252.96254434 2.28698109 253.81195072 -1.79663086 253.73803711 C-7.42366489 252.19167226 -11.49100584 246.924749 -15.48632812 242.85742188 C-16.54990124 241.79924297 -17.61465908 240.74225362 -18.68054199 239.68640137 C-20.90574303 237.47297075 -23.11589403 235.24578135 -25.31640625 233.0078125 C-28.13200748 230.14662767 -30.98201645 227.32287618 -33.84430695 224.50849152 C-36.04825949 222.33351123 -38.23272348 220.13975446 -40.41184998 217.93992615 C-41.45533474 216.89112207 -42.50474741 215.84818029 -43.56019592 214.81141663 C-45.03567232 213.3563711 -46.4829111 211.87791864 -47.92578125 210.390625 C-48.75436646 209.55567505 -49.58295166 208.7207251 -50.43664551 207.86047363 C-52.73310051 204.24482911 -53.10148146 201.19993351 -52.20507812 197.07617188 C-50.40983496 194.212321 -48.09960438 192.03484703 -45.64257812 189.73242188 C-44.97669678 189.07786011 -44.31081543 188.42329834 -43.62475586 187.74890137 C-41.5029578 185.67172694 -39.35502757 183.62415504 -37.20507812 181.57617188 C-35.75794746 180.16918533 -34.31261244 178.7603494 -32.86914062 177.34960938 C-29.33489639 173.90335892 -25.77695363 170.48338646 -22.20507812 167.07617188 C-23.33521206 167.07470531 -24.46534599 167.07323875 -25.62972641 167.07172775 C-53.1036067 167.03516449 -80.57736478 166.97575669 -108.05114365 166.89226913 C-121.33716528 166.85242666 -134.62310566 166.82006066 -147.90917969 166.80517578 C-159.4866794 166.79218624 -171.06404808 166.76529073 -182.64147401 166.72155881 C-188.77403974 166.69888329 -194.9064435 166.68326484 -201.03905487 166.68428802 C-206.80763042 166.68503104 -212.57584709 166.66722485 -218.34432983 166.63500404 C-220.46475845 166.62646396 -222.58522713 166.62478276 -224.70566559 166.63036919 C-227.59487076 166.63696883 -230.48292053 166.61918552 -233.37200928 166.59515381 C-234.21636654 166.60291423 -235.0607238 166.61067464 -235.93066764 166.61867023 C-239.59606903 166.56448012 -241.73864981 166.43353619 -244.69464493 164.1687355 C-247.31230197 160.54221701 -247.33978252 158.33251343 -247.36621094 153.86987305 C-247.37581848 152.56479294 -247.38542603 151.25971283 -247.39532471 149.91508484 C-247.40017293 148.48310521 -247.4044517 147.05112355 -247.40820312 145.61914062 C-247.41395507 144.1542409 -247.41971279 142.68934121 -247.42547607 141.22444153 C-247.43598783 138.15019378 -247.44182907 135.07597218 -247.4453125 132.00170898 C-247.45079192 128.06738699 -247.47480701 124.13341201 -247.50328445 120.19919872 C-247.5219348 117.17168681 -247.52711774 114.144258 -247.52864838 111.1166935 C-247.53167099 109.66665059 -247.53968639 108.216609 -247.55283356 106.76662254 C-247.56993911 104.73470306 -247.56616248 102.70264048 -247.56152344 100.6706543 C-247.56516907 99.51530685 -247.5688147 98.35995941 -247.5725708 97.16960144 C-247.1630085 93.72204391 -246.26733366 91.84306476 -244.20507812 89.07617188 C-240.9080433 87.42765446 -237.23743344 87.92212383 -233.61251831 87.91795349 C-232.26238276 87.91054653 -232.26238276 87.91054653 -230.88497174 87.90298992 C-227.85088804 87.88755873 -224.81682559 87.87923913 -221.78271484 87.87084961 C-219.6149578 87.8612755 -217.44720263 87.8512657 -215.27944946 87.84085083 C-209.37894165 87.81374507 -203.47842579 87.79276627 -197.57788992 87.77284884 C-191.41723752 87.75102419 -185.25661007 87.72361832 -179.09597778 87.6967926 C-167.4229552 87.64681799 -155.7499188 87.60189689 -144.07686913 87.55877024 C-130.79048091 87.50943855 -117.5041184 87.45450537 -104.21775413 87.39909065 C-76.8802188 87.28519742 -49.54265948 87.17837442 -22.20507812 87.07617188 C-23.11386719 86.20927734 -24.02265625 85.34238281 -24.95898438 84.44921875 C-28.33377159 81.21951796 -31.68177611 77.96317453 -35.02246094 74.69824219 C-36.47039916 73.29047049 -37.92544489 71.88997015 -39.38769531 70.49707031 C-41.49190849 68.49019488 -43.56893635 66.45831299 -45.64257812 64.41992188 C-46.62689819 63.49753723 -46.62689819 63.49753723 -47.63110352 62.55651855 C-50.76067042 59.43010011 -52.60794835 57.33149134 -52.72576141 52.79120636 C-52.10554022 48.36597673 -51.04586231 46.90576659 -47.92578125 43.76171875 C-47.47046021 43.29237915 -47.01513916 42.82303955 -46.54602051 42.33947754 C-45.04553153 40.80397043 -43.51789969 39.29937967 -41.98632812 37.79492188 C-40.92814922 36.73134876 -39.87115987 35.66659092 -38.81530762 34.60070801 C-36.601877 32.37550697 -34.3746876 30.16535597 -32.13671875 27.96484375 C-29.27553392 25.14924252 -26.45178243 22.29923355 -23.63739777 19.43694305 C-21.46241748 17.23299051 -19.26866071 15.04852652 -17.0688324 12.86940002 C-16.02002832 11.82591526 -14.97708654 10.77650259 -13.94032288 9.72105408 C-4.83709445 0.49000361 -4.83709445 0.49000361 0 0 Z " fill="#FE3535" transform="translate(386.205078125,128.923828125)"/>
<path d="M0 0 C1.1863685 -0.01104769 2.372737 -0.02209538 3.59505606 -0.03347784 C5.5520335 -0.02111669 5.5520335 -0.02111669 7.54854584 -0.00850582 C8.94746207 -0.01382947 10.34637259 -0.02089412 11.74527216 -0.02955288 C15.59376821 -0.04823136 19.44188082 -0.04185756 23.29039311 -0.03139985 C27.43907509 -0.02442255 31.58767711 -0.0403945 35.73633575 -0.05339718 C43.86527463 -0.07506676 51.99407369 -0.0749028 60.12303197 -0.06677163 C66.72808458 -0.06047833 73.33309633 -0.0616025 79.9381485 -0.06804371 C80.87729911 -0.06894536 81.81644972 -0.06984702 82.78405944 -0.070776 C84.69177339 -0.07262715 86.59948733 -0.07448971 88.50720125 -0.07636356 C106.40659308 -0.09295217 124.30590614 -0.08421363 142.20529324 -0.06737798 C158.59181695 -0.05267831 174.97815736 -0.0673113 191.36465746 -0.09614814 C208.17940797 -0.12551891 224.99407381 -0.13652132 241.80884886 -0.12696594 C243.70964526 -0.12594336 245.61044167 -0.12494875 247.5112381 -0.12398243 C248.44652868 -0.12350604 249.38181926 -0.12302965 250.34545198 -0.12253882 C256.94453929 -0.12037172 263.54354669 -0.13019444 270.14261627 -0.14475346 C278.18192517 -0.16224213 286.22100024 -0.1622094 294.2602998 -0.1394018 C298.36415641 -0.12822818 302.46760054 -0.12516705 306.57143974 -0.14370251 C310.32565574 -0.16044106 314.07909741 -0.1542478 317.83326262 -0.12948572 C319.84029456 -0.12224951 321.84736814 -0.13969 323.85433054 -0.15789706 C325.63388329 -0.139264 325.63388329 -0.139264 327.4493866 -0.12025452 C328.47550096 -0.11998483 329.50161532 -0.11971514 330.55882406 -0.11943728 C334.20994354 0.73736493 335.25177089 2.40210612 337.2246933 5.50615788 C337.72805786 8.18454075 337.72805786 8.18454075 337.73262787 11.12297916 C337.74954681 12.80107418 337.74954681 12.80107418 337.76680756 14.51307011 C337.75466217 16.33979504 337.75466217 16.33979504 337.74227142 18.2034235 C337.75278534 20.13830883 337.75278534 20.13830883 337.76351166 22.11228275 C337.7817205 25.64335496 337.77468797 29.1739588 337.76199532 32.70503902 C337.75185482 36.40360986 337.7612639 40.1021411 337.76753998 43.80071354 C337.77481336 50.01135793 337.76523693 56.22181193 337.74617767 62.43242741 C337.72440934 69.6086018 337.73146094 76.7843216 337.7534833 83.96048498 C337.77164624 90.12625753 337.7741913 96.29189338 337.76372862 102.45768404 C337.75749853 106.13829053 337.75664449 109.81868347 337.76987457 113.49927616 C337.78359492 117.60275456 337.76456899 121.70545159 337.74227142 125.80889225 C337.75036835 127.02670887 337.75846527 128.24452549 337.76680756 129.49924564 C337.68539895 137.57370752 337.68539895 137.57370752 335.61737823 141.75930119 C332.41026042 144.10076083 330.38359642 144.14021581 326.42415619 144.15313053 C325.74885361 144.16189213 325.07355103 144.17065372 324.37778473 144.17968082 C322.15031503 144.20164829 319.92483865 144.187133 317.69734955 144.17022038 C316.14562347 144.17358975 314.59389998 144.17844338 313.04218292 144.18471622 C309.79132185 144.19208418 306.5411482 144.18138709 303.29036713 144.15801334 C299.12925411 144.12954808 294.9697551 144.1459138 290.80870152 144.17587566 C287.60436668 144.19397181 284.40041241 144.18817987 281.1960659 144.1752367 C279.66230769 144.17190779 278.12851462 144.17597172 276.59479713 144.18763447 C274.44714722 144.20038036 272.30208291 144.18092024 270.15462494 144.15313053 C268.93425034 144.14915257 267.71387573 144.1451746 266.45652008 144.14107609 C263.2246933 143.50615788 263.2246933 143.50615788 258.2246933 138.50615788 C258.2246933 118.70615788 258.2246933 98.90615788 258.2246933 78.50615788 C195.5246933 78.50615788 132.8246933 78.50615788 68.2246933 78.50615788 C68.2246933 195.98615788 68.2246933 313.46615788 68.2246933 434.50615788 C130.9246933 434.50615788 193.6246933 434.50615788 258.2246933 434.50615788 C258.2246933 414.70615788 258.2246933 394.90615788 258.2246933 374.50615788 C262.2246933 369.50615788 262.2246933 369.50615788 265.37422943 368.87123966 C267.23476959 368.86527271 267.23476959 368.86527271 269.13289642 368.85918522 C270.16289009 368.84604282 270.16289009 368.84604282 271.21369171 368.83263493 C273.47842266 368.81066796 275.74119331 368.82518115 278.0059433 368.84209538 C279.58248519 368.83872639 281.15902455 368.83387308 282.73555756 368.82759953 C286.0376893 368.82023197 289.33914422 368.83092896 292.6411972 368.85430241 C296.87190114 368.88279131 301.10101929 368.86638654 305.33166504 368.83644009 C308.58657 368.81836324 311.8410996 368.82412664 315.09601593 368.83707905 C316.6557204 368.84041205 318.21545906 368.8363296 319.7751236 368.82468128 C321.95649576 368.81196467 324.13530851 368.83135403 326.31649017 368.85918522 C327.55685028 368.86316319 328.79721039 368.86714115 330.07515717 368.87123966 C333.2246933 369.50615788 333.2246933 369.50615788 335.62410736 371.25301456 C338.1703576 376.42819244 337.78010822 381.51258546 337.74227142 387.2034235 C337.75278534 389.13830883 337.75278534 389.13830883 337.76351166 391.11228275 C337.7817205 394.64335496 337.77468797 398.1739588 337.76199532 401.70503902 C337.75185482 405.40360986 337.7612639 409.1021411 337.76753998 412.80071354 C337.77481336 419.01135793 337.76523693 425.22181193 337.74617767 431.43242741 C337.72440934 438.6086018 337.73146094 445.7843216 337.7534833 452.96048498 C337.77164624 459.12625753 337.7741913 465.29189338 337.76372862 471.45768404 C337.75749853 475.13829053 337.75664449 478.81868347 337.76987457 482.49927616 C337.78359492 486.60275456 337.76456899 490.70545159 337.74227142 494.80889225 C337.75036835 496.02670887 337.75846527 497.24452549 337.76680756 498.49924564 C337.75552826 499.61797565 337.74424896 500.73670567 337.73262787 501.88933659 C337.73036572 503.3438636 337.73036572 503.3438636 337.72805786 504.827775 C337.06129341 508.37560218 335.74379107 509.94136541 333.2246933 512.50615788 C330.55882406 513.13175303 330.55882406 513.13175303 327.4493866 513.13257027 C326.2630181 513.1449923 325.0766496 513.15741434 323.85433054 513.17021281 C322.54967891 513.15837708 321.24502728 513.14654135 319.90084076 513.13434696 C318.50192272 513.13939066 317.10301114 513.14661813 315.70411444 513.15584511 C311.85552451 513.17482005 308.00756771 513.16250469 304.15899348 513.14512217 C300.01031139 513.13177888 295.86172382 513.14717429 291.71305084 513.15894413 C283.58406965 513.17734789 275.45532841 513.16879023 267.32635462 513.15085591 C260.72129851 513.1368448 254.11630765 513.13293389 247.5112381 513.13629818 C246.57208749 513.13677562 245.63293688 513.13725306 244.66532716 513.13774497 C242.75761321 513.13877128 240.84989927 513.13982664 238.94218534 513.14091074 C222.06348756 513.14948334 205.18490582 513.13278466 188.30623627 513.1030817 C171.91849137 513.07424295 155.53091365 513.06716003 139.14315033 513.08257389 C121.30892034 513.09932522 103.47476978 513.10338118 85.64053774 513.08586353 C83.73974133 513.08401909 81.83894492 513.08218437 79.9381485 513.08035946 C79.00285792 513.07944737 78.06756734 513.07853528 77.10393462 513.07759555 C70.50486626 513.0719835 63.90583659 513.07530355 57.30677032 513.08190441 C49.26747648 513.08962644 41.22834738 513.08292593 33.18908679 513.05772937 C29.08529117 513.04520794 24.98175235 513.0391196 20.87794685 513.05027103 C17.12381395 513.06027987 13.37019419 513.0519264 9.61612397 513.02868985 C7.60910777 513.02105204 5.60204676 513.03311654 3.59505606 513.04579359 C2.40868756 513.0347459 1.22231906 513.02369822 0 513.01231575 C-1.02611436 513.01112427 -2.05222873 513.00993279 -3.10943747 513.0087052 C-5.7753067 512.50615788 -5.7753067 512.50615788 -8.10480309 510.99653381 C-10.46432056 507.47898049 -10.32676507 504.24679756 -10.27867126 500.15398502 C-10.28448503 499.2996277 -10.29029879 498.44527037 -10.29628873 497.56502342 C-10.31096642 494.68248923 -10.29696736 491.80079621 -10.28324127 488.91826725 C-10.28784711 486.83876196 -10.29419788 484.75925993 -10.30215025 482.67976475 C-10.31891017 476.95004344 -10.31056695 471.22058725 -10.29820538 465.49086475 C-10.28918441 459.31763977 -10.3031099 453.14446156 -10.31412506 446.97124577 C-10.33091557 435.57177103 -10.32941571 424.17240485 -10.31847919 412.77293277 C-10.30842605 402.24283659 -10.30578591 391.71277154 -10.31056976 381.18267155 C-10.3108753 380.48480823 -10.31118084 379.78694491 -10.31149564 379.06793422 C-10.31274095 376.23524298 -10.31401455 373.40255175 -10.3153347 370.56986055 C-10.32757702 343.98457847 -10.31646684 317.39935051 -10.29494711 290.81407678 C-10.27596398 267.18276232 -10.27766246 243.55153408 -10.29679108 219.92022038 C-10.31819896 193.38428009 -10.32670888 166.84838764 -10.31434202 140.31243992 C-10.31305911 137.48484136 -10.31180775 134.65724278 -10.31056976 131.8296442 C-10.31025345 131.13339205 -10.30993714 130.43713991 -10.30961125 129.71978921 C-10.30505695 119.19503376 -10.31039065 108.67031284 -10.32048798 98.14556217 C-10.33190907 86.18118478 -10.3287136 74.21690924 -10.307365 62.25253582 C-10.29682541 56.14374986 -10.29278222 50.03513922 -10.30596161 43.92635441 C-10.31783114 38.34037153 -10.31141309 32.75472745 -10.2900514 27.16877556 C-10.28556218 25.14192288 -10.28790313 23.11504191 -10.29755455 21.08820724 C-10.30962309 18.34450136 -10.29734131 15.60197383 -10.27867126 12.85833073 C-10.29271826 11.66292274 -10.29271826 11.66292274 -10.30704904 10.4433651 C-10.26024108 7.029286 -10.02696341 4.88132606 -8.10480309 2.01578194 C-5.19120353 0.12763134 -3.46305234 0.00402115 0 0 Z M6.2246933 16.50615788 C6.2246933 174.90615788 6.2246933 333.30615788 6.2246933 496.50615788 C110.1746933 496.50615788 214.1246933 496.50615788 321.2246933 496.50615788 C321.2246933 459.87615788 321.2246933 423.24615788 321.2246933 385.50615788 C306.0446933 385.50615788 290.8646933 385.50615788 275.2246933 385.50615788 C275.21051361 389.70721256 275.19633392 393.90826725 275.18172455 398.23662663 C275.15646896 401.59254726 275.12624011 404.94834133 275.09265137 408.30418491 C275.05858985 411.84335744 275.03323431 415.38209623 275.02913666 418.92144108 C275.02402798 422.98535626 274.97890153 427.04798048 274.93172455 431.11162663 C274.9356572 432.37637318 274.93958984 433.64111973 274.94364166 434.94419193 C274.92399857 436.12503864 274.90435547 437.30588535 274.88411713 438.5225153 C274.87745529 439.5595409 274.87079346 440.59656651 274.86392975 441.66501713 C273.96692709 445.65182171 272.42407582 446.98788972 269.2246933 449.50615788 C266.15924415 449.99192491 263.65530816 450.17086261 260.59526825 450.12088871 C259.72739972 450.12657197 258.8595312 450.13225522 257.96536362 450.1381107 C255.0576665 450.1510284 252.1513574 450.12821146 249.24373627 450.10552311 C247.15921995 450.10738689 245.07470461 450.11142292 242.99019623 450.11747074 C237.32912368 450.1274566 231.66855073 450.10625754 226.00755072 450.0789907 C220.08857771 450.0551871 214.16961506 450.05810586 208.25060272 450.05768681 C198.31235528 450.05305705 188.37429928 450.02940168 178.43611908 449.99321842 C166.93612704 449.95146108 155.43630739 449.93390231 143.93624389 449.93059868 C131.70473599 449.92700282 119.47329037 449.90813425 107.24180841 449.8834784 C103.71140295 449.87724195 100.18100223 449.87361059 96.6505928 449.8704443 C91.11022182 449.86455528 85.56997473 449.84827443 80.02965546 449.82384014 C77.99264864 449.81638288 75.95562622 449.8123271 73.9186058 449.81186008 C71.14565866 449.8106077 68.37304124 449.7971044 65.60015106 449.78031254 C64.38105319 449.78393516 64.38105319 449.78393516 63.13732708 449.78763098 C59.30450964 449.75110247 57.49071447 449.68350532 54.2246933 447.50615788 C53.12138281 444.1962264 53.09593374 441.74739367 53.09047222 438.26043892 C53.08601438 436.94369244 53.08155653 435.62694595 53.0769636 434.27029806 C53.0770529 432.80017633 53.07724276 431.33005461 53.07752228 429.8599329 C53.07422385 428.30514383 53.07049833 426.75035562 53.0663808 425.1955685 C53.0563507 420.91167438 53.0526424 416.62779427 53.04999149 412.34389007 C53.04609157 407.72827519 53.03651319 403.11267143 53.02777863 398.49706364 C53.00800803 387.3465525 52.99794841 376.19604045 52.98905084 365.04551616 C52.98466995 359.79856472 52.97930272 354.5516143 52.97406197 349.30466366 C52.95705104 331.87075256 52.94255497 314.43684209 52.93531322 297.00292397 C52.93340325 292.47787888 52.93148292 287.9528338 52.92952728 283.42778873 C52.92904354 282.30307271 52.9285598 281.17835669 52.9280614 280.01955836 C52.91975396 261.78358213 52.89440439 243.54767134 52.86194661 225.31172372 C52.82891801 206.6031228 52.81086838 187.89455519 52.80766898 169.18592495 C52.80550026 158.67599042 52.79669857 148.16615141 52.77120781 137.65624523 C52.74955833 128.70933583 52.74142201 119.76254513 52.75117459 110.8156125 C52.75573572 106.24802729 52.75372841 101.6806873 52.73441315 97.11313534 C52.71689769 92.93526683 52.71768367 88.75782453 52.73331044 84.57995223 C52.73570428 83.06517079 52.73127184 81.55036071 52.71948179 80.03562326 C52.70448954 77.98304008 52.71635889 75.93031249 52.72970867 73.87771797 C52.72873186 72.73562656 52.72775505 71.59353514 52.72674865 70.41683489 C53.33999933 66.83214998 54.32787593 65.65119367 57.2246933 63.50615788 C60.18075117 63.11128071 62.76456905 62.96141541 65.72040558 62.99149418 C66.58600855 62.98454865 67.45161152 62.97760312 68.34344488 62.97044712 C71.24935281 62.95212353 74.15444929 62.9624563 77.06038666 62.97271061 C79.1415137 62.96565484 81.22263561 62.95691128 83.30374908 62.94660282 C88.96077608 62.92406056 94.61752394 62.92705993 100.27457881 62.93592429 C104.99396598 62.9410268 109.71330036 62.93374759 114.4326821 62.92645222 C125.56448974 62.90943777 136.69616035 62.91303459 147.82796478 62.92974186 C159.31948238 62.94666577 170.8106202 62.93082821 182.30209631 62.89851898 C192.16207473 62.8718451 202.02193478 62.86454111 211.88194567 62.87303406 C217.77363897 62.87796956 223.66510369 62.87571385 229.55676842 62.85524654 C235.09644541 62.83692413 240.63557503 62.84280635 246.1752224 62.86744595 C248.20978267 62.87246471 250.24438439 62.86893661 252.27891159 62.85629749 C255.0539071 62.84042057 257.82708828 62.85526685 260.60199738 62.87796879 C261.40958573 62.86613306 262.21717408 62.85429733 263.04923481 62.84210294 C267.10761012 62.90968395 268.99515441 63.32539565 272.22365952 65.8678484 C274.60647359 69.00952496 274.85901138 70.58167233 274.88411713 74.48980045 C274.90376022 75.67064716 274.92340332 76.85149387 274.94364166 78.06812382 C274.93774269 79.96524364 274.93774269 79.96524364 274.93172455 81.90068913 C274.94684586 83.20318104 274.96196716 84.50567295 274.97754669 85.84763432 C275.0173315 89.29841116 275.02758272 92.7486602 275.03157806 96.19963932 C275.04092212 99.72579995 275.07807352 103.25166157 275.11336517 106.77764225 C275.1804911 113.68754478 275.20136768 120.59541312 275.2246933 127.50615788 C290.4046933 127.50615788 305.5846933 127.50615788 321.2246933 127.50615788 C321.2246933 90.87615788 321.2246933 54.24615788 321.2246933 16.50615788 C217.2746933 16.50615788 113.3246933 16.50615788 6.2246933 16.50615788 Z " fill="#000000" transform="translate(9.775306701660156,-0.5061578750610352)"/>
<path d="M0 0 C103.95 0 207.9 0 315 0 C315 36.63 315 73.26 315 111 C299.82 111 284.64 111 269 111 C268.98582031 106.79894531 268.97164063 102.59789063 268.95703125 98.26953125 C268.93177566 94.91361062 268.90154681 91.55781654 268.86795807 88.20197296 C268.83389655 84.66280044 268.80854101 81.12406165 268.80444336 77.5847168 C268.79933468 73.52080162 268.75420824 69.45817739 268.70703125 65.39453125 C268.71293022 63.49741142 268.71293022 63.49741142 268.71894836 61.56196594 C268.69930527 60.38111923 268.67966217 59.20027252 268.65942383 57.98364258 C268.64943108 56.42810417 268.64943108 56.42810417 268.63923645 54.84114075 C267.74231961 50.85471759 266.19843514 49.5187726 263 47 C259.93763979 46.51000622 257.4350963 46.326997 254.37730408 46.37181091 C253.51014112 46.36471653 252.64297815 46.35762214 251.74953753 46.35031277 C248.84421134 46.33271242 245.94021936 46.35084781 243.03491211 46.36889648 C240.95201508 46.36375849 238.86912239 46.35647812 236.78623962 46.34721375 C231.12925942 46.32867759 225.47274969 46.34165209 219.81578898 46.36130404 C213.89993779 46.37767124 207.98411685 46.36888044 202.06825256 46.36378479 C192.13421092 46.35926204 182.20035746 46.37514592 172.26635742 46.40307617 C160.77426639 46.43513758 149.28251464 46.43510944 137.79039949 46.4178614 C126.74269023 46.40200983 115.6951056 46.40872051 104.64740181 46.42579842 C99.94211074 46.4326787 95.23691927 46.43162645 90.53162956 46.42425346 C84.99362524 46.41660463 79.45600809 46.4286711 73.91806984 46.45610237 C71.88309758 46.46300166 69.84808927 46.46306773 67.81311798 46.45588684 C65.04021418 46.44722788 62.2685151 46.46308756 59.49571228 46.4853363 C58.68589321 46.47709554 57.87607413 46.46885477 57.04171509 46.46036428 C53.67079415 46.51046229 51.39038126 46.75725172 48.50145435 48.55365467 C46.45222024 51.89250695 46.44024285 54.85348527 46.48101807 58.65618896 C46.46976619 59.81900261 46.46976619 59.81900261 46.458287 61.00530744 C46.43797369 63.60504641 46.44611937 66.20391625 46.45410156 68.80371094 C46.44536851 70.66635503 46.43488367 72.52899161 46.42277527 74.39161682 C46.39486185 79.45119539 46.39151176 84.51052982 46.39249516 89.57017422 C46.38937065 94.85667354 46.36376208 100.14306216 46.34051514 105.42950439 C46.29991619 115.44146365 46.27960526 125.45335771 46.26654124 135.46538663 C46.25068439 146.86314458 46.21227432 158.26079138 46.17194796 169.65848494 C46.08949562 193.10564137 46.03841427 216.55272721 46 240 C30.82 240 15.64 240 0 240 C0 160.8 0 81.6 0 0 Z " fill="#F30000" transform="translate(16,16)"/>
<path d="M0 0 C9.28848488 2.63404795 16.36188485 12.49989609 23.06030273 19.2121582 C24.17294047 20.3234384 25.28579028 21.4345063 26.39883423 22.54537964 C29.39859652 25.54061275 32.39522312 28.53896421 35.39112926 31.53805375 C38.53216403 34.68163177 41.67565086 37.82275631 44.81874084 40.96427917 C50.08839734 46.23212131 55.35595244 51.50205781 60.62231445 56.77319336 C66.71447034 62.87080742 72.81024318 68.96478786 78.90787405 75.05692655 C84.14891317 80.29343383 89.38800885 85.53187951 94.62547213 90.7719633 C97.75147151 93.89952288 100.87814556 97.02639992 104.00657463 100.15152931 C106.94157566 103.08365004 109.8741356 106.01819019 112.80479813 108.95464706 C113.88231207 110.03348702 114.96068485 111.11146995 116.03996086 112.18854713 C117.50848613 113.65435514 118.97392075 115.12318359 120.43858337 116.59284973 C121.26057189 117.41521527 122.08256041 118.23758081 122.92945766 119.08486652 C125.81067555 122.16044662 126.33381675 124.65004438 126.25337505 128.89214993 C125.69432694 131.5553954 124.79669389 132.65066395 122.95967102 134.64552307 C122.31957407 135.34201525 121.67947712 136.03850742 121.01998329 136.75610542 C116.6223095 141.34154983 112.15582634 145.8539369 107.65893555 150.34155273 C106.54765535 151.45419047 105.43658745 152.56704028 104.32571411 153.68008423 C101.330481 156.67984652 98.33212954 159.67647312 95.33304 162.67237926 C92.18946198 165.81341403 89.04833744 168.95690086 85.90681458 172.09999084 C80.63897244 177.36964734 75.36903594 182.63720244 70.09790039 187.90356445 C64.00028633 193.99572034 57.90630589 200.09149318 51.8141672 206.18912405 C46.57765992 211.43016317 41.33921424 216.66925885 36.09913045 221.90672213 C32.97157087 225.03272151 29.84469383 228.15939556 26.71956444 231.28782463 C23.78744371 234.22282566 20.85290356 237.1553856 17.91644669 240.08604813 C16.83760673 241.16356207 15.7596238 242.24193485 14.68254662 243.32121086 C13.21673861 244.78973613 11.74791016 246.25517075 10.27824402 247.71983337 C9.45587848 248.54182189 8.63351294 249.36381041 7.78622723 250.21070766 C4.84875618 252.96254434 2.28698109 253.81195072 -1.79663086 253.73803711 C-7.42366489 252.19167226 -11.49100584 246.924749 -15.48632812 242.85742188 C-16.54990124 241.79924297 -17.61465908 240.74225362 -18.68054199 239.68640137 C-20.90574303 237.47297075 -23.11589403 235.24578135 -25.31640625 233.0078125 C-28.13200748 230.14662767 -30.98201645 227.32287618 -33.84430695 224.50849152 C-36.04825949 222.33351123 -38.23272348 220.13975446 -40.41184998 217.93992615 C-41.45533474 216.89112207 -42.50474741 215.84818029 -43.56019592 214.81141663 C-45.03567232 213.3563711 -46.4829111 211.87791864 -47.92578125 210.390625 C-48.75436646 209.55567505 -49.58295166 208.7207251 -50.43664551 207.86047363 C-52.73310051 204.24482911 -53.10148146 201.19993351 -52.20507812 197.07617188 C-50.40983496 194.212321 -48.09960438 192.03484703 -45.64257812 189.73242188 C-44.97669678 189.07786011 -44.31081543 188.42329834 -43.62475586 187.74890137 C-41.5029578 185.67172694 -39.35502757 183.62415504 -37.20507812 181.57617188 C-35.75794746 180.16918533 -34.31261244 178.7603494 -32.86914062 177.34960938 C-29.33489639 173.90335892 -25.77695363 170.48338646 -22.20507812 167.07617188 C-23.33521206 167.07470531 -24.46534599 167.07323875 -25.62972641 167.07172775 C-53.1036067 167.03516449 -80.57736478 166.97575669 -108.05114365 166.89226913 C-121.33716528 166.85242666 -134.62310566 166.82006066 -147.90917969 166.80517578 C-159.4866794 166.79218624 -171.06404808 166.76529073 -182.64147401 166.72155881 C-188.77403974 166.69888329 -194.9064435 166.68326484 -201.03905487 166.68428802 C-206.80763042 166.68503104 -212.57584709 166.66722485 -218.34432983 166.63500404 C-220.46475845 166.62646396 -222.58522713 166.62478276 -224.70566559 166.63036919 C-227.59487076 166.63696883 -230.48292053 166.61918552 -233.37200928 166.59515381 C-234.21636654 166.60291423 -235.0607238 166.61067464 -235.93066764 166.61867023 C-239.59606903 166.56448012 -241.73864981 166.43353619 -244.69464493 164.1687355 C-247.31230197 160.54221701 -247.33978252 158.33251343 -247.36621094 153.86987305 C-247.37581848 152.56479294 -247.38542603 151.25971283 -247.39532471 149.91508484 C-247.40017293 148.48310521 -247.4044517 147.05112355 -247.40820312 145.61914062 C-247.41395507 144.1542409 -247.41971279 142.68934121 -247.42547607 141.22444153 C-247.43598783 138.15019378 -247.44182907 135.07597218 -247.4453125 132.00170898 C-247.45079192 128.06738699 -247.47480701 124.13341201 -247.50328445 120.19919872 C-247.5219348 117.17168681 -247.52711774 114.144258 -247.52864838 111.1166935 C-247.53167099 109.66665059 -247.53968639 108.216609 -247.55283356 106.76662254 C-247.56993911 104.73470306 -247.56616248 102.70264048 -247.56152344 100.6706543 C-247.56516907 99.51530685 -247.5688147 98.35995941 -247.5725708 97.16960144 C-247.1630085 93.72204391 -246.26733366 91.84306476 -244.20507812 89.07617188 C-240.9080433 87.42765446 -237.23743344 87.92212383 -233.61251831 87.91795349 C-232.26238276 87.91054653 -232.26238276 87.91054653 -230.88497174 87.90298992 C-227.85088804 87.88755873 -224.81682559 87.87923913 -221.78271484 87.87084961 C-219.6149578 87.8612755 -217.44720263 87.8512657 -215.27944946 87.84085083 C-209.37894165 87.81374507 -203.47842579 87.79276627 -197.57788992 87.77284884 C-191.41723752 87.75102419 -185.25661007 87.72361832 -179.09597778 87.6967926 C-167.4229552 87.64681799 -155.7499188 87.60189689 -144.07686913 87.55877024 C-130.79048091 87.50943855 -117.5041184 87.45450537 -104.21775413 87.39909065 C-76.8802188 87.28519742 -49.54265948 87.17837442 -22.20507812 87.07617188 C-23.11386719 86.20927734 -24.02265625 85.34238281 -24.95898438 84.44921875 C-28.33377159 81.21951796 -31.68177611 77.96317453 -35.02246094 74.69824219 C-36.47039916 73.29047049 -37.92544489 71.88997015 -39.38769531 70.49707031 C-41.49190849 68.49019488 -43.56893635 66.45831299 -45.64257812 64.41992188 C-46.62689819 63.49753723 -46.62689819 63.49753723 -47.63110352 62.55651855 C-50.76067042 59.43010011 -52.60794835 57.33149134 -52.72576141 52.79120636 C-52.10554022 48.36597673 -51.04586231 46.90576659 -47.92578125 43.76171875 C-47.47046021 43.29237915 -47.01513916 42.82303955 -46.54602051 42.33947754 C-45.04553153 40.80397043 -43.51789969 39.29937967 -41.98632812 37.79492188 C-40.92814922 36.73134876 -39.87115987 35.66659092 -38.81530762 34.60070801 C-36.601877 32.37550697 -34.3746876 30.16535597 -32.13671875 27.96484375 C-29.27553392 25.14924252 -26.45178243 22.29923355 -23.63739777 19.43694305 C-21.46241748 17.23299051 -19.26866071 15.04852652 -17.0688324 12.86940002 C-16.02002832 11.82591526 -14.97708654 10.77650259 -13.94032288 9.72105408 C-4.83709445 0.49000361 -4.83709445 0.49000361 0 0 Z M-2.62246704 22.25305176 C-3.16873749 22.80376343 -3.71500793 23.3544751 -4.27783203 23.921875 C-5.2085704 24.85283997 -5.2085704 24.85283997 -6.15811157 25.8026123 C-6.82587616 26.48069946 -7.49364075 27.15878662 -8.18164062 27.85742188 C-8.86688812 28.54549927 -9.55213562 29.23357666 -10.25814819 29.94250488 C-12.45351093 32.14909509 -14.64183228 34.36252589 -16.83007812 36.57617188 C-18.31399572 38.07011594 -19.79836492 39.56361156 -21.28320312 41.05664062 C-24.92909143 44.72462333 -28.56921664 48.3982514 -32.20507812 52.07617188 C-30.80668601 55.25605585 -29.17284801 57.32494284 -26.67333984 59.72387695 C-25.95274384 60.42172806 -25.23214783 61.11957916 -24.48971558 61.83857727 C-23.71258209 62.5834288 -22.93544861 63.32828033 -22.13476562 64.09570312 C-20.49991687 65.69065406 -18.86582522 67.28638134 -17.23242188 68.8828125 C-14.65467971 71.3924346 -12.07213803 73.89628964 -9.47607422 76.38696289 C-6.97136121 78.79490182 -4.48930671 81.22438735 -2.00976562 83.65820312 C-1.22858368 84.39698196 -0.44740173 85.1357608 0.35745239 85.89692688 C5.60234477 91.09053649 5.60234477 91.09053649 6.53271484 95.85229492 C5.64613397 99.7263189 5.00478053 100.75727686 1.79492188 103.07617188 C-1.29736273 103.67679301 -4.3517903 103.62251779 -7.49371338 103.59515381 C-8.44451523 103.60265506 -9.39531707 103.61015631 -10.3749311 103.61788487 C-13.56885896 103.63822502 -16.76208121 103.63004681 -19.95605469 103.62207031 C-22.24233709 103.63080186 -24.52861337 103.64128617 -26.81488037 103.65339661 C-33.02936969 103.68132824 -39.24366032 103.6846597 -45.45820332 103.68367672 C-51.94986263 103.68679966 -58.44143163 103.71240494 -64.93304443 103.73565674 C-75.83133967 103.77165057 -86.72958207 103.79373054 -97.62792969 103.80517578 C-108.85322463 103.81700243 -120.07845309 103.83719557 -131.30371094 103.86865234 C-131.99564302 103.87058845 -132.6875751 103.87252455 -133.40047482 103.87451932 C-136.87169721 103.88428383 -140.34291911 103.89421295 -143.8141408 103.90422392 C-172.61109762 103.98706107 -201.40802455 104.03776344 -230.20507812 104.07617188 C-230.20507812 119.25617188 -230.20507812 134.43617188 -230.20507812 150.07617188 C-219.6945459 150.09804565 -219.6945459 150.09804565 -208.97167969 150.12036133 C-186.56209652 150.16909995 -164.1525699 150.23250377 -141.74305274 150.30515816 C-138.2632725 150.31642657 -134.78349185 150.32756498 -131.30371094 150.33862305 C-130.61093755 150.34082673 -129.91816417 150.34303041 -129.20439765 150.34530088 C-117.98122167 150.38069117 -106.75804577 150.40554551 -95.53483465 150.42651889 C-84.02220178 150.44826718 -72.50965058 150.48153159 -60.9970777 150.52487344 C-54.5291903 150.54885681 -48.06138334 150.56755205 -41.59345245 150.57378578 C-35.50975554 150.5798135 -29.42626457 150.59972939 -23.34264374 150.63044739 C-21.10610888 150.6392648 -18.86954715 150.64294259 -16.63299561 150.64118004 C-13.58632764 150.63953667 -10.54029454 150.65614654 -7.49371338 150.67744446 C-6.15714042 150.67017309 -6.15714042 150.67017309 -4.79356599 150.66275483 C-1.24492625 150.70387402 1.15349145 150.74106975 4.33249283 152.40187359 C5.79492188 154.07617188 5.79492188 154.07617188 6.48242188 157.26367188 C5.7699959 161.21439772 5.29296115 162.01777992 2.71850586 164.84179688 C2.08274628 165.54071045 1.44698669 166.23962402 0.79196167 166.9597168 C-2.30669958 170.24366604 -5.46450496 173.45902622 -8.66992188 176.63867188 C-9.68718102 177.65380859 -9.68718102 177.65380859 -10.72499084 178.68945312 C-12.86182117 180.82074862 -15.00212635 182.94851405 -17.14257812 185.07617188 C-18.60439936 186.53296967 -20.06599 187.98999889 -21.52734375 189.44726562 C-25.08393213 192.99291161 -28.64363829 196.53539926 -32.20507812 200.07617188 C-30.90787889 202.93396204 -29.54139552 204.98625724 -27.31591797 207.19238281 C-26.73546722 207.7726825 -26.15501648 208.35298218 -25.55697632 208.9508667 C-24.93295929 209.56456116 -24.30894226 210.17825562 -23.66601562 210.81054688 C-23.02516022 211.44857239 -22.38430481 212.0865979 -21.72402954 212.74395752 C-19.68069991 214.77611257 -17.6305183 216.80119405 -15.58007812 218.82617188 C-14.19159953 220.20461718 -12.80357323 221.58351824 -11.41601562 222.96289062 C-8.01759115 226.33929081 -4.61300559 229.70936475 -1.20507812 233.07617188 C2.27521308 231.58248673 4.52110536 229.5969977 7.18621826 226.92538452 C8.05837479 226.05597733 8.93053131 225.18657013 9.82911682 224.29081726 C10.78753817 223.32531825 11.74586321 222.3597236 12.70410156 221.39404297 C13.71902732 220.37855293 14.73439395 219.36350336 15.75016785 218.34886169 C18.50433942 215.59526398 21.25230066 212.83554304 23.99919415 210.07468748 C26.87171888 207.1896609 29.74990774 204.31029646 32.62750244 201.43032837 C38.07482135 195.9767931 43.5170219 190.51817958 48.95740533 185.0577265 C55.15173925 178.84103848 61.35175263 172.63002799 67.55225134 166.41948962 C80.30614132 153.6446941 93.05287587 140.86278049 105.79492188 128.07617188 C104.30203132 124.60167838 102.32081872 122.35076091 99.65759277 119.68487549 C98.35781746 118.3766407 98.35781746 118.3766407 97.03178406 117.04197693 C96.06946675 116.08354797 95.10704566 115.1252232 94.14453125 114.16699219 C93.13230053 113.15205081 92.12049565 112.13668458 91.10908508 111.1209259 C88.36382855 108.36655427 85.61228642 105.61854328 82.85930061 102.8718996 C79.981128 99.99878873 77.10783619 97.1208035 74.23376465 94.24359131 C69.40862259 89.4148113 64.57927977 84.59026266 59.74755859 79.76806641 C54.15540901 74.18681335 48.57051762 68.59837501 42.98931837 63.00617337 C38.20060433 58.2083963 33.40801993 53.41451158 28.61215258 48.62388492 C25.74616554 45.76102142 22.88156007 42.89681069 20.02043152 40.02909088 C17.3327475 37.3356479 14.64025342 34.6471095 11.94389915 31.96234703 C10.95288034 30.97398207 9.96357681 29.98389392 8.97608376 28.9920063 C7.63274821 27.64324286 6.28269064 26.30118414 4.93225098 24.95953369 C3.79957668 23.82799047 3.79957668 23.82799047 2.64402008 22.6735878 C0.45565745 20.78308501 -0.33868007 20.3567882 -2.62246704 22.25305176 Z " fill="#000000" transform="translate(386.205078125,128.923828125)"/>
<path d="M0 0 C3.47739214 1.49328847 5.72579629 3.47663706 8.39129639 6.14405823 C9.26345291 7.01202026 10.13560944 7.8799823 11.03419495 8.77424622 C11.9926201 9.73815438 12.950945 10.70216225 13.90917969 11.66625977 C14.92411325 12.68012016 15.93947968 13.69354739 16.95524597 14.70657349 C19.70951757 17.45600076 22.45750371 20.21163233 25.20427227 22.96855283 C28.07709002 25.85015275 30.95517715 28.72648077 33.83258057 31.60350037 C38.66117261 36.43302864 43.48587678 41.26641334 48.30810547 46.10229492 C53.89091092 51.70084768 59.47894782 57.2941346 65.0699985 62.8844524 C70.44277383 68.25661848 75.81269161 73.63163084 81.18100739 79.0082531 C83.46891179 81.29969656 85.7576712 83.59028104 88.04708099 85.88022041 C90.73836266 88.57250293 93.42709254 91.26730811 96.11382484 93.9641304 C97.10306659 94.95630482 98.09316827 95.94762265 99.08416557 96.93804359 C100.43063639 98.28402738 101.77374148 99.63337569 103.11663818 100.98292542 C103.87100033 101.7389634 104.62536247 102.49500139 105.40258408 103.27394962 C107 105 107 105 107 106 C-3.88 106 -114.76 106 -229 106 C-229 98.41 -229 90.82 -229 83 C-226.10236877 82.99635437 -223.20473755 82.99270874 -220.21929932 82.98895264 C-193.65879912 82.95368976 -167.09838692 82.898679 -140.53797461 82.82207905 C-137.05819443 82.81206137 -133.57841379 82.80221728 -130.09863281 82.79248047 C-129.40585943 82.7905391 -128.71308604 82.78859772 -127.99931952 82.78659752 C-116.77613665 82.75556071 -105.55297424 82.73859219 -94.32975653 82.72680578 C-82.81710798 82.71440289 -71.30458283 82.68662295 -59.79199958 82.64538693 C-53.32408772 82.62270946 -46.85632947 82.60709308 -40.38837433 82.60811615 C-34.30462862 82.60885905 -28.2212233 82.59105752 -22.13756561 82.55883217 C-19.90103201 82.55029062 -17.66446042 82.54861186 -15.42791748 82.55419731 C-12.38108771 82.56079468 -9.33535453 82.54301871 -6.28863525 82.51898193 C-5.39758662 82.52674235 -4.50653798 82.53450277 -3.58848786 82.54249835 C1.30887124 82.48612044 1.30887124 82.48612044 5.532444 80.16679764 C7.20414118 77.97146158 7.20414118 77.97146158 7.76953125 74.81225586 C6.58746964 68.95632562 2.91016564 66.04303001 -1.3125 62.00390625 C-2.15594971 61.17036118 -2.99939941 60.3368161 -3.8684082 59.47801208 C-6.56294555 56.82262105 -9.28080287 54.19261004 -12 51.5625 C-13.83232005 49.76529241 -15.6630695 47.96648202 -17.4921875 46.16601562 C-21.97674098 41.75859161 -26.48068259 37.37175508 -31 33 C-29.70280076 30.14220983 -28.3363174 28.08991464 -26.11083984 25.88378906 C-25.5303891 25.30348938 -24.94993835 24.7231897 -24.35189819 24.12530518 C-23.72788116 23.51161072 -23.10386414 22.89791626 -22.4609375 22.265625 C-21.49965439 21.30858673 -21.49965439 21.30858673 -20.51895142 20.33221436 C-18.47562179 18.30005931 -16.42544018 16.27497782 -14.375 14.25 C-12.9865214 12.8715547 -11.5984951 11.49265364 -10.2109375 10.11328125 C-6.81251303 6.73688106 -3.40792746 3.36680712 0 0 Z " fill="#F30000" transform="translate(385,150)"/>
</svg>
