<svg version="1.1" id="Layer_1" xmlns="http://www.w3.org/2000/svg" xmlns:xlink="http://www.w3.org/1999/xlink" x="0px" y="0px"
	 width="100%" viewBox="0 0 512 512" enable-background="new 0 0 512 512" xml:space="preserve">
<path fill="#000000" opacity="1.000000" stroke="none" 
	d="
M296.000000,513.000000 
	C197.357285,513.000000 99.214561,513.000000 1.035923,513.000000 
	C1.035923,342.398926 1.035923,171.797836 1.035923,1.098378 
	C171.559402,1.098378 342.118866,1.098378 512.839172,1.098378 
	C512.839172,171.666550 512.839172,342.333252 512.839172,513.000000 
	C440.797821,513.000000 368.648895,513.000000 296.000000,513.000000 
M314.761566,38.267292 
	C314.134552,36.623196 313.569122,34.952461 312.870941,33.339172 
	C306.621643,18.898731 296.302551,8.602571 280.413300,6.829078 
	C266.941895,5.325454 253.204590,5.950226 239.588333,6.058547 
	C219.863083,6.215469 203.746857,19.579187 199.031738,39.818138 
	C198.798157,48.211330 198.564575,56.604519 198.156387,65.920547 
	C198.841583,75.278877 199.526764,84.637215 200.233536,94.711823 
	C206.527908,111.553719 218.464081,121.895393 236.430252,123.282524 
	C250.173035,124.343575 264.122650,124.276390 277.875214,123.272438 
	C295.584045,121.979668 309.166199,110.186211 314.143585,93.220657 
	C314.681641,83.812889 315.219727,74.405113 315.910370,64.071419 
	C315.528076,55.713234 315.145782,47.355049 314.761566,38.267292 
M313.809052,419.281342 
	C306.795715,402.738617 295.259186,391.624512 276.616516,390.694946 
	C262.847076,390.008362 248.919739,389.741913 235.223709,391.017059 
	C217.529739,392.664429 205.842560,403.033478 199.913391,420.754486 
	C199.385895,429.835541 198.858398,438.916565 198.156128,448.920502 
	C198.818893,458.612671 199.481674,468.304810 200.129562,478.732880 
	C206.481689,496.046570 220.710663,507.439362 237.451431,507.911530 
	C250.589859,508.282074 263.758423,508.323547 276.893402,507.894348 
	C294.401886,507.322296 311.009460,493.224670 314.559784,476.381226 
	C314.959137,466.919891 315.358459,457.458527 315.910217,447.071442 
	C315.213318,438.047638 314.516418,429.023804 313.809052,419.281342 
M199.313446,230.554764 
	C198.986053,239.369049 198.658661,248.183334 198.156448,257.920410 
	C198.829163,267.278778 199.501892,276.637177 200.176971,286.728241 
	C206.246826,303.451599 218.072495,313.829681 235.708542,315.432129 
	C249.745895,316.707550 264.050629,316.548553 278.125885,315.516144 
	C295.669037,314.229401 309.516113,301.994354 314.104523,285.220093 
	C314.655518,275.812103 315.206512,266.404114 315.910004,256.070526 
	C315.279205,247.046814 314.648407,238.023117 314.051117,228.231186 
	C307.750519,211.550125 296.571045,200.099548 278.269592,198.632370 
	C264.237061,197.507431 249.971695,197.496445 235.938751,198.611588 
	C217.516235,200.075546 202.671204,213.767609 199.313446,230.554764 
z"/>
<path fill="#7170E5" opacity="1.000000" stroke="none" 
	d="
M315.757812,447.997192 
	C315.358459,457.458527 314.959137,466.919891 313.847839,476.691223 
	C278.425598,477.000977 243.715210,476.976593 209.004990,477.043610 
	C206.050873,477.049316 203.097931,477.664764 200.144440,477.996979 
	C199.481674,468.304810 198.818893,458.612671 198.691055,448.458252 
	C238.069916,447.996429 276.913849,447.996796 315.757812,447.997192 
z"/>
<path fill="#7170E5" opacity="1.000000" stroke="none" 
	d="
M200.174622,285.995544 
	C199.501892,276.637177 198.829163,267.278778 198.691376,257.458130 
	C238.070053,256.995941 276.913788,256.996033 315.757507,256.996124 
	C315.206512,266.404114 314.655518,275.812103 313.524414,285.608948 
	C275.354431,285.997009 237.764526,285.996277 200.174622,285.995544 
z"/>
<path fill="#7170E5" opacity="1.000000" stroke="none" 
	d="
M315.757782,64.997345 
	C315.219727,74.405113 314.681641,83.812889 313.531189,93.608917 
	C275.349854,93.996635 237.780914,93.996086 200.211960,93.995544 
	C199.526764,84.637215 198.841583,75.278877 198.691223,65.458397 
	C238.069962,64.996613 276.913879,64.996979 315.757782,64.997345 
z"/>
<path fill="#6F76E8" opacity="1.000000" stroke="none" 
	d="
M315.833740,256.533325 
	C276.913788,256.996033 238.070053,256.995941 198.778793,256.996765 
	C198.658661,248.183334 198.986053,239.369049 200.036026,230.255096 
	C236.049103,229.969757 271.339630,230.004044 306.630035,229.955292 
	C309.092987,229.951889 311.555084,229.332397 314.017578,228.999420 
	C314.648407,238.023117 315.279205,247.046814 315.833740,256.533325 
z"/>
<path fill="#6F76E8" opacity="1.000000" stroke="none" 
	d="
M315.833984,447.534302 
	C276.913849,447.996796 238.069916,447.996429 198.778442,447.996826 
	C198.858398,438.916565 199.385895,429.835541 200.458130,420.473999 
	C203.462952,420.462280 205.922653,420.960999 208.383163,420.964966 
	C240.743973,421.017273 273.104980,421.024261 305.465729,420.956451 
	C308.251007,420.950592 311.034973,420.333282 313.819550,420.000000 
	C314.516418,429.023804 315.213318,438.047638 315.833984,447.534302 
z"/>
<path fill="#6C7CE9" opacity="1.000000" stroke="none" 
	d="
M199.303604,38.994778 
	C203.746857,19.579187 219.863083,6.215469 239.588333,6.058547 
	C253.204590,5.950226 266.941895,5.325454 280.413300,6.829078 
	C296.302551,8.602571 306.621643,18.898731 312.870941,33.339172 
	C313.569122,34.952461 314.134552,36.623196 314.308960,38.632248 
	C275.672089,38.996399 237.487839,38.995590 199.303604,38.994778 
z"/>
<path fill="#6F76E8" opacity="1.000000" stroke="none" 
	d="
M199.167664,39.406456 
	C237.487839,38.995590 275.672089,38.996399 314.309906,38.997036 
	C315.145782,47.355049 315.528076,55.713234 315.834076,64.534378 
	C276.913879,64.996979 238.069962,64.996613 198.778519,64.996979 
	C198.564575,56.604519 198.798157,48.211330 199.167664,39.406456 
z"/>
<path fill="#6C7BE8" opacity="1.000000" stroke="none" 
	d="
M314.034363,228.615295 
	C311.555084,229.332397 309.092987,229.951889 306.630035,229.955292 
	C271.339630,230.004044 236.049103,229.969757 200.276978,229.940643 
	C202.671204,213.767609 217.516235,200.075546 235.938751,198.611588 
	C249.971695,197.496445 264.237061,197.507431 278.269592,198.632370 
	C296.571045,200.099548 307.750519,211.550125 314.034363,228.615295 
z"/>
<path fill="#7469E3" opacity="1.000000" stroke="none" 
	d="
M200.136993,478.364929 
	C203.097931,477.664764 206.050873,477.049316 209.004990,477.043610 
	C243.715210,476.976593 278.425598,477.000977 313.610107,477.001465 
	C311.009460,493.224670 294.401886,507.322296 276.893402,507.894348 
	C263.758423,508.323547 250.589859,508.282074 237.451431,507.911530 
	C220.710663,507.439362 206.481689,496.046570 200.136993,478.364929 
z"/>
<path fill="#6C7BE8" opacity="1.000000" stroke="none" 
	d="
M313.814301,419.640686 
	C311.034973,420.333282 308.251007,420.950592 305.465729,420.956451 
	C273.104980,421.024261 240.743973,421.017273 208.383163,420.964966 
	C205.922653,420.960999 203.462952,420.462280 200.610184,420.097107 
	C205.842560,403.033478 217.529739,392.664429 235.223709,391.017059 
	C248.919739,389.741913 262.847076,390.008362 276.616516,390.694946 
	C295.259186,391.624512 306.795715,402.738617 313.814301,419.640686 
z"/>
<path fill="#7469E3" opacity="1.000000" stroke="none" 
	d="
M200.175797,286.361877 
	C237.764526,285.996277 275.354431,285.997009 313.404327,285.997070 
	C309.516113,301.994354 295.669037,314.229401 278.125885,315.516144 
	C264.050629,316.548553 249.745895,316.707550 235.708542,315.432129 
	C218.072495,313.829681 206.246826,303.451599 200.175797,286.361877 
z"/>
<path fill="#7469E3" opacity="1.000000" stroke="none" 
	d="
M200.222748,94.353683 
	C237.780914,93.996086 275.349854,93.996635 313.376923,93.996689 
	C309.166199,110.186211 295.584045,121.979668 277.875214,123.272438 
	C264.122650,124.276390 250.173035,124.343575 236.430252,123.282524 
	C218.464081,121.895393 206.527908,111.553719 200.222748,94.353683 
z"/>
</svg>