<?xml version="1.0" standalone="no"?>
<!DOCTYPE svg PUBLIC "-//W3C//DTD SVG 20010904//EN"
 "http://www.w3.org/TR/2001/REC-SVG-20010904/DTD/svg10.dtd">
<svg version="1.0" xmlns="http://www.w3.org/2000/svg"
 width="512.000000pt" height="512.000000pt" viewBox="0 0 512.000000 512.000000"
 preserveAspectRatio="xMidYMid meet">

<g transform="translate(0.000000,512.000000) scale(0.100000,-0.100000)"
fill="#FFFFFF" stroke="none">
<path d="M2438 4994 c-154 -37 -290 -147 -357 -289 -46 -96 -53 -149 -49 -365
3 -170 6 -202 25 -253 25 -67 68 -137 114 -185 17 -18 30 -35 28 -36 -2 -2
-119 -80 -259 -173 -140 -94 -265 -180 -277 -192 -54 -51 -58 -71 -61 -295 -2
-116 -1 -224 3 -242 15 -83 232 -220 435 -276 83 -22 96 -23 520 -23 424 0
437 1 520 23 203 56 420 193 435 276 4 18 5 126 3 242 -3 224 -7 244 -61 295
-12 12 -137 98 -277 192 -140 93 -257 171 -259 173 -2 1 11 18 28 36 46 48 89
118 114 185 19 51 22 83 25 253 4 216 -3 269 -49 365 -106 224 -363 347 -601
289z m222 -216 c80 -25 155 -93 192 -173 21 -46 23 -63 23 -235 0 -172 -2
-189 -23 -236 -58 -128 -210 -209 -344 -184 -105 20 -198 92 -240 184 -21 47
-23 64 -23 236 0 172 2 189 23 236 67 147 234 221 392 172z m-138 -1044 c39
-4 92 -2 127 5 l60 12 301 -201 300 -200 -2 -161 -3 -161 -80 -48 c-43 -27
-111 -59 -150 -72 -69 -23 -76 -23 -515 -23 -442 0 -445 0 -514 24 -63 22
-141 61 -208 105 l-28 18 0 159 0 159 298 200 c236 158 302 199 322 195 14 -3
55 -8 92 -11z"/>
<path d="M673 4337 c-238 -238 -243 -243 -243 -283 0 -71 60 -119 130 -106 15
3 79 58 157 135 l132 130 3 -524 c3 -489 4 -526 21 -551 39 -58 135 -58 174 0
17 25 18 62 21 551 l3 524 132 -130 c78 -77 142 -132 157 -135 70 -13 130 35
130 106 0 40 -5 45 -243 283 l-242 243 -45 0 -45 0 -242 -243z"/>
<path d="M3873 4337 c-238 -238 -243 -243 -243 -283 0 -71 60 -119 130 -106
15 3 79 58 157 135 l132 130 3 -524 c3 -489 4 -526 21 -551 39 -58 135 -58
174 0 17 25 18 62 21 551 l3 524 132 -130 c78 -77 142 -132 157 -135 70 -13
130 35 130 106 0 40 -5 45 -243 283 l-242 243 -45 0 -45 0 -242 -243z"/>
<path d="M854 2867 c-2 -7 -3 -56 -2 -108 l3 -94 105 0 105 0 0 105 0 105
-103 3 c-79 2 -104 0 -108 -11z"/>
<path d="M4054 2867 c-2 -7 -3 -56 -2 -108 l3 -94 105 0 105 0 0 105 0 105
-103 3 c-79 2 -104 0 -108 -11z"/>
<path d="M838 2434 c-154 -37 -290 -147 -357 -289 -46 -96 -53 -149 -49 -365
3 -170 6 -202 25 -253 25 -67 68 -137 114 -185 17 -18 30 -35 28 -36 -2 -2
-119 -80 -259 -173 -140 -94 -265 -180 -277 -192 -54 -51 -58 -71 -61 -295 -2
-116 -1 -224 3 -242 15 -83 232 -220 435 -276 l85 -23 1780 0 c1709 0 1781 1
1807 18 58 39 58 135 0 174 -26 17 -103 18 -1817 23 l-1790 5 -60 22 c-66 25
-115 50 -187 95 l-48 30 0 159 0 159 301 201 301 200 49 -10 c64 -14 134 -14
198 0 l49 10 248 -165 248 -166 -3 -119 c-3 -135 7 -169 60 -197 43 -22 91
-11 123 27 24 28 26 38 26 125 l0 94 301 201 301 200 49 -10 c64 -14 134 -14
198 0 l49 10 301 -200 301 -201 0 -94 c0 -87 2 -97 26 -125 32 -38 80 -49 123
-27 53 28 63 62 60 197 l-3 119 248 166 248 165 49 -10 c64 -14 134 -14 198 0
l49 10 301 -200 301 -201 0 -159 0 -158 -37 -25 c-119 -79 -214 -114 -347
-128 -80 -8 -93 -12 -119 -39 -43 -42 -42 -101 2 -144 30 -31 34 -32 111 -30
146 4 330 67 466 161 82 56 122 98 129 136 4 18 5 126 3 242 -3 224 -7 244
-61 295 -12 12 -137 98 -277 192 -140 93 -257 171 -259 173 -2 1 11 18 28 36
46 48 89 118 114 185 19 51 22 83 25 253 4 216 -3 269 -49 365 -106 223 -359
346 -597 290 -157 -37 -293 -146 -361 -290 -46 -96 -53 -149 -49 -365 3 -170
6 -202 25 -253 25 -67 68 -137 114 -185 17 -18 30 -35 28 -36 -26 -22 -431
-286 -439 -286 -8 0 -413 264 -439 286 -2 1 11 18 28 36 46 48 89 118 114 185
19 51 22 83 25 253 4 216 -3 269 -49 365 -68 144 -204 253 -361 290 -238 56
-491 -67 -597 -290 -46 -96 -53 -149 -49 -365 3 -170 6 -202 25 -253 25 -67
68 -137 114 -185 17 -18 30 -35 28 -36 -26 -22 -431 -286 -439 -286 -8 0 -413
264 -439 286 -2 1 11 18 28 36 46 48 89 118 114 185 19 51 22 83 25 253 4 216
-3 269 -49 365 -106 224 -363 347 -601 289z m222 -216 c80 -25 155 -93 192
-173 21 -46 23 -63 23 -235 0 -172 -2 -189 -23 -236 -58 -128 -210 -209 -344
-184 -105 20 -198 92 -240 184 -21 47 -23 64 -23 236 0 172 2 189 23 236 67
147 234 221 392 172z m1600 0 c80 -25 155 -93 192 -173 21 -46 23 -63 23 -235
0 -172 -2 -189 -23 -236 -42 -92 -135 -164 -240 -184 -134 -25 -286 56 -344
184 -21 47 -23 64 -23 236 0 172 2 189 23 236 67 147 234 221 392 172z m1600
0 c80 -25 155 -93 192 -173 21 -46 23 -63 23 -235 0 -172 -2 -189 -23 -236
-58 -128 -210 -209 -344 -184 -105 20 -198 92 -240 184 -21 47 -23 64 -23 236
0 172 2 189 23 236 67 147 234 221 392 172z"/>
</g>
</svg>
