<svg width="23" height="24" viewBox="0 0 23 24" fill="none" xmlns="http://www.w3.org/2000/svg">
<path d="M20.3704 12C20.3704 11.724 20.3586 11.46 20.335 11.184L22.5348 9.492C23.0079 9.132 23.138 8.46 22.8423 7.932L20.6306 4.056C20.4888 3.80182 20.2595 3.60977 19.9866 3.51674C19.7137 3.42372 19.4165 3.43627 19.1522 3.552L16.6094 4.644C16.1718 4.332 15.7105 4.056 15.2256 3.828L14.8826 1.056C14.8116 0.456 14.3031 0 13.7117 0H9.30013C8.69694 0 8.18837 0.456 8.1174 1.056L7.77441 3.828C7.28949 4.056 6.82823 4.332 6.39062 4.644L3.84776 3.552C3.30371 3.312 2.66503 3.528 2.36935 4.056L0.157655 7.944C-0.138027 8.472 -0.00792671 9.132 0.465164 9.504L2.66503 11.196C2.61601 11.7349 2.61601 12.2771 2.66503 12.816L0.465164 14.508C-0.00792671 14.868 -0.138027 15.54 0.157655 16.068L2.36935 19.944C2.66503 20.472 3.30371 20.688 3.84776 20.448L6.39062 19.356C6.82823 19.668 7.28949 19.944 7.77441 20.172L8.1174 22.944C8.18837 23.544 8.69694 24 9.2883 24H13.6999C14.2912 24 14.7998 23.544 14.8708 22.944L15.2138 20.172C15.6987 19.944 16.1599 19.668 16.5975 19.356L19.1404 20.448C19.6845 20.688 20.3231 20.472 20.6188 19.944L22.8305 16.068C23.1262 15.54 22.9961 14.88 22.523 14.508L20.3231 12.816C20.3586 12.54 20.3704 12.276 20.3704 12ZM11.5473 16.2C9.26465 16.2 7.40777 14.316 7.40777 12C7.40777 9.684 9.26465 7.8 11.5473 7.8C13.83 7.8 15.6869 9.684 15.6869 12C15.6869 14.316 13.83 16.2 11.5473 16.2Z" fill="#dddddd"/>
</svg>
