<svg width="30" height="27" viewBox="0 0 30 27" fill="none" xmlns="http://www.w3.org/2000/svg">
<path d="M29.5608 12.4395L17.5607 0.439191C17.3509 0.229472 17.0837 0.0866586 16.7927 0.0288059C16.5018 -0.0290468 16.2002 0.000658442 15.9262 0.114166C15.6521 0.227674 15.4179 0.419888 15.2531 0.666508C15.0882 0.913129 15.0002 1.20308 15.0002 1.49972V6.81734C10.9026 7.19654 7.09392 9.09119 4.31958 12.1305C1.54525 15.1698 0.00490765 19.1351 0 23.2502V25.5003C0.000236786 25.8117 0.0973656 26.1152 0.277914 26.3689C0.458463 26.6226 0.713482 26.8138 1.0076 26.9161C1.30172 27.0183 1.62035 27.0264 1.91931 26.9394C2.21828 26.8523 2.48274 26.6744 2.67603 26.4303C4.14559 24.6827 5.9487 23.2455 7.98 22.2027C10.0113 21.1598 12.2301 20.5323 14.5067 20.3567C14.5817 20.3477 14.7692 20.3327 15.0002 20.3177V25.5003C15.0002 25.7969 15.0882 26.0869 15.2531 26.3335C15.4179 26.5801 15.6521 26.7723 15.9262 26.8858C16.2002 26.9993 16.5018 27.029 16.7927 26.9712C17.0837 26.9133 17.3509 26.7705 17.5607 26.5608L29.5608 14.5605C29.842 14.2792 30 13.8978 30 13.5C30 13.1022 29.842 12.7208 29.5608 12.4395ZM18.0002 21.8792V18.7501C18.0002 18.3523 17.8422 17.9708 17.5608 17.6894C17.2795 17.4081 16.898 17.2501 16.5002 17.2501C16.1177 17.2501 14.5562 17.3251 14.1572 17.3776C10.1144 17.7501 6.26619 19.2861 3.07803 21.7997C3.4399 18.4913 5.00936 15.4326 7.48591 13.2092C9.96246 10.9859 13.1721 9.75418 16.5002 9.74991C16.898 9.74991 17.2795 9.59187 17.5608 9.31056C17.8422 9.02925 18.0002 8.64771 18.0002 8.24988V5.1208L26.3793 13.5L18.0002 21.8792Z" fill="#C7C8D1"/>
</svg>
